# xmcd
#
# Track frame offsets: 
#        150
#        14345
#        26859
#        40714
#        52026
#        67755
#        80251
#        93110
#        106511
#        123393
#        141493
#        161450
#        181400
#        195201
#        209525
#        222521
#        237102
#        250448
#        264611
#        279146
#
# Disc length: 3949 seconds
#
# Revision: 1
# Processed by: cddbd v1.5.2PL0 Copyright (c) Steve Scherf et al.
# Submitted via: ExactAudioCopyFreeDBPlugin 1.0
#
DISCID=100f6b14
DTITLE=Ben Webster - Stompin' at the Savoy - CD 2
DYEAR=2005
DGENRE=Jazz
TTITLE0=Woke Up Clipped
TTITLE1=Teezol
TTITLE2=Nuff Said
TTITLE3=The Horn
TTITLE4=Dirty Deal
TTITLE5=Don't Blame Me
TTITLE6=I Surrender Dear
TTITLE7=Tea for Two
TTITLE8=Blue Mizz
TTITLE9=Victory Stride
TTITLE10=Joy-Mentin'
TTITLE11=After You've Gone
TTITLE12=Jericho
TTITLE13=Talk To Me
TTITLE14=Conceto for Cozy
TTITLE15=Body and Soul
TTITLE16=Nice and Cozy
TTITLE17=Sleep
TTITLE18=Linger Awhile
TTITLE19=Memories of You
EXTD=YEAR: 2005
EXTT0=
EXTT1=
EXTT2=
EXTT3=
EXTT4=
EXTT5=
EXTT6=
EXTT7=
EXTT8=
EXTT9=
EXTT10=
EXTT11=
EXTT12=
EXTT13=
EXTT14=
EXTT15=
EXTT16=
EXTT17=
EXTT18=
EXTT19=
PLAYORDER=
